<?xml version="1.0" encoding="utf-8"?>
<svg width="123.62683px" height="80.06085px" viewBox="0 0 123.62683 80.06085" version="1.1" xmlns:xlink="http://www.w3.org/1999/xlink" xmlns="http://www.w3.org/2000/svg">
  <defs>
    <path d="M123.627 0L123.627 0L123.627 80.0609L0 80.0609L0 0L123.627 0Z" id="path_1" />
    <clipPath id="clip_1">
      <use xlink:href="#path_1" clip-rule="evenodd" fill-rule="evenodd" />
    </clipPath>
  </defs>
  <g id="Frame">
    <path d="M123.627 0L123.627 0L123.627 80.0609L0 80.0609L0 0L123.627 0Z" id="Frame" fill="none" stroke="none" />
    <g id="Group" transform="translate(2 2.0000114)" clip-path="url(#clip_1)">
      <path d="M115.7 54.2608L95.9 2.96082L91.6 7.26081C87.9 10.9608 83 12.9608 77.9 12.9608C72.8 12.9608 67.9 10.9608 64.2 7.26081L59.9 2.96082L40.1 54.2608C38.8 57.5608 38.9 60.8608 40 63.7608L12.4 57.6608C7.6 56.5608 3 60.2608 3 65.1608C3 69.4608 6.5 72.8608 10.7 72.8608L102.9 72.8608C112.5 72.9608 119.2 63.2608 115.7 54.2608L115.7 54.2608Z" id="Shape" fill="#FFFFFF" stroke="none" />
      <path d="M67.9 29.9608C66.2432 29.9608 64.9 31.304 64.9 32.9608C64.9 34.6177 66.2432 35.9608 67.9 35.9608C69.5569 35.9608 70.9 34.6177 70.9 32.9608C70.9 31.304 69.5569 29.9608 67.9 29.9608L67.9 29.9608ZM87.9 29.9608C86.2432 29.9608 84.9 31.304 84.9 32.9608C84.9 34.6177 86.2432 35.9608 87.9 35.9608C89.5569 35.9608 90.9 34.6177 90.9 32.9608C90.9 31.304 89.5569 29.9608 87.9 29.9608L87.9 29.9608Z" id="Shape" fill="#444B54" fill-rule="evenodd" stroke="none" />
      <path d="M118.5 53.2608L98.7 1.96083C98.3 1.06083 97.5 0.360828 96.5 0.0608253C95.5 -0.139175 94.5 0.160824 93.8 0.860825L89.5 5.16082C86.4 8.26082 82.3 9.96082 77.9 9.96082C73.5 9.96082 69.4 8.26082 66.4 5.16082L62.1 0.860825C61.4 0.160824 60.3 -0.139175 59.4 0.0608253C58.4 0.260826 57.6 0.960827 57.2 1.96083L37.4 53.2608C35.4 58.3608 36.1 64.1608 39.2 68.7608C39.5 69.1608 39.8 69.6608 40.2 70.0608L10.6 70.0608C8 70.0608 5.9 67.9608 5.9 65.3608C5.9 63.9608 6.5 62.5608 7.7 61.6608C8.8 60.7608 10.3 60.4608 11.7 60.7608L26.2 63.9608C27.8 64.3608 29.4 63.2608 29.8 61.6608C30.2 60.0608 29.1 58.4608 27.5 58.0608L13.1 54.8608C9.9 54.1608 6.6 54.8608 4 56.9608C1.4 58.9608 0 62.0608 0 65.3608C0 71.2608 4.8 76.0608 10.7 76.0608L52.9 76.0608C54.6 76.0608 55.9 74.7608 55.9 73.0608C55.9 71.3608 54.6 70.0608 52.9 70.0608C49.3 70.0608 46.1 68.3608 44.1 65.3608C42.1 62.3608 41.6 58.7608 42.9 55.4608L61 8.46083L62.1 9.56083C66.3 13.6608 71.9 15.9608 77.9 15.9608C83.9 15.9608 89.5 13.6608 93.7 9.46082L94.8 8.36082L112.9 55.3608C114.2 58.6608 113.8 62.3608 111.7 65.2608C109.6 68.1608 106.4 69.9608 102.9 69.9608L95.5 69.9608C94.2 65.6608 90.2 62.4608 85.4 62.4608C82.5 62.4608 79.8 63.6608 77.9 65.6608C77.9 65.6608 77.9 65.6608 77.8 65.5608C75.8 63.5608 73.2 62.4608 70.4 62.4608C67.6 62.4608 65 63.5608 63 65.5608C61 67.5608 59.9 70.1608 59.9 72.9608C59.9 74.6608 61.2 75.9608 62.9 75.9608L62.9 75.9608C64.6 75.9608 65.9 74.6608 65.9 72.9608C65.9 71.7608 66.4 70.6608 67.2 69.7608C68 68.8608 69.2 68.4608 70.4 68.4608C71.6 68.4608 72.7 68.9608 73.6 69.7608C74.4 70.5608 74.9 71.6608 74.9 72.8608C74.9 72.8608 74.9 72.9608 74.9 72.9608C74.9 73.0608 74.9 73.0608 74.9 73.1608C75 74.7608 76.4 76.0608 78 75.9608C79.6 75.9608 80.9 74.5608 80.9 72.9608C80.9 72.9608 80.9 72.8608 80.9 72.8608C80.9 70.4608 82.9 68.4608 85.4 68.4608C87.9 68.4608 89.9 70.4608 89.9 72.9608C89.9 74.6608 91.2 75.9608 92.9 75.9608L102.9 75.9608C108.4 75.9608 113.6 73.2608 116.7 68.6608C119.8 64.1608 120.5 58.3608 118.5 53.2608L118.5 53.2608Z" id="Shape" fill="#444B54" stroke="none" />
      <path d="M115.7 54.2608L95.9 2.96082L91.6 7.26081C87.9 10.9608 83 12.9608 77.9 12.9608C72.8 12.9608 67.9 10.9608 64.2 7.26081L59.9 2.96082L40.1 54.2608C38.8 57.5608 38.9 60.8608 40 63.7608L12.4 57.6608C7.6 56.5608 3 60.2608 3 65.1608C3 69.4608 6.5 72.8608 10.7 72.8608L102.9 72.8608C112.5 72.9608 119.2 63.2608 115.7 54.2608L115.7 54.2608Z" id="Shape" fill="#FFFFFF" stroke="none" />
      <path d="M67.9 29.9608C66.2432 29.9608 64.9 31.304 64.9 32.9608C64.9 34.6177 66.2432 35.9608 67.9 35.9608C69.5569 35.9608 70.9 34.6177 70.9 32.9608C70.9 31.304 69.5569 29.9608 67.9 29.9608L67.9 29.9608ZM87.9 29.9608C86.2432 29.9608 84.9 31.304 84.9 32.9608C84.9 34.6177 86.2432 35.9608 87.9 35.9608C89.5569 35.9608 90.9 34.6177 90.9 32.9608C90.9 31.304 89.5569 29.9608 87.9 29.9608L87.9 29.9608Z" id="Shape" fill="#444B54" fill-rule="evenodd" stroke="none" />
      <path d="M118.5 53.2608L98.7 1.96083C98.3 1.06083 97.5 0.360828 96.5 0.0608253C95.5 -0.139175 94.5 0.160824 93.8 0.860825L89.5 5.16082C86.4 8.26082 82.3 9.96082 77.9 9.96082C73.5 9.96082 69.4 8.26082 66.4 5.16082L62.1 0.860825C61.4 0.160824 60.3 -0.139175 59.4 0.0608253C58.4 0.260826 57.6 0.960827 57.2 1.96083L37.4 53.2608C35.4 58.3608 36.1 64.1608 39.2 68.7608C39.5 69.1608 39.8 69.6608 40.2 70.0608L10.6 70.0608C8 70.0608 5.9 67.9608 5.9 65.3608C5.9 63.9608 6.5 62.5608 7.7 61.6608C8.8 60.7608 10.3 60.4608 11.7 60.7608L26.2 63.9608C27.8 64.3608 29.4 63.2608 29.8 61.6608C30.2 60.0608 29.1 58.4608 27.5 58.0608L13.1 54.8608C9.9 54.1608 6.6 54.8608 4 56.9608C1.4 58.9608 0 62.0608 0 65.3608C0 71.2608 4.8 76.0608 10.7 76.0608L52.9 76.0608C54.6 76.0608 55.9 74.7608 55.9 73.0608C55.9 71.3608 54.6 70.0608 52.9 70.0608C49.3 70.0608 46.1 68.3608 44.1 65.3608C42.1 62.3608 41.6 58.7608 42.9 55.4608L61 8.46083L62.1 9.56083C66.3 13.6608 71.9 15.9608 77.9 15.9608C83.9 15.9608 89.5 13.6608 93.7 9.46082L94.8 8.36082L112.9 55.3608C114.2 58.6608 113.8 62.3608 111.7 65.2608C109.6 68.1608 106.4 69.9608 102.9 69.9608L95.5 69.9608C94.2 65.6608 90.2 62.4608 85.4 62.4608C82.5 62.4608 79.8 63.6608 77.9 65.6608C77.9 65.6608 77.9 65.6608 77.8 65.5608C75.8 63.5608 73.2 62.4608 70.4 62.4608C67.6 62.4608 65 63.5608 63 65.5608C61 67.5608 59.9 70.1608 59.9 72.9608C59.9 74.6608 61.2 75.9608 62.9 75.9608L62.9 75.9608C64.6 75.9608 65.9 74.6608 65.9 72.9608C65.9 71.7608 66.4 70.6608 67.2 69.7608C68 68.8608 69.2 68.4608 70.4 68.4608C71.6 68.4608 72.7 68.9608 73.6 69.7608C74.4 70.5608 74.9 71.6608 74.9 72.8608C74.9 72.8608 74.9 72.9608 74.9 72.9608C74.9 73.0608 74.9 73.0608 74.9 73.1608C75 74.7608 76.4 76.0608 78 75.9608C79.6 75.9608 80.9 74.5608 80.9 72.9608C80.9 72.9608 80.9 72.8608 80.9 72.8608C80.9 70.4608 82.9 68.4608 85.4 68.4608C87.9 68.4608 89.9 70.4608 89.9 72.9608C89.9 74.6608 91.2 75.9608 92.9 75.9608L102.9 75.9608C108.4 75.9608 113.6 73.2608 116.7 68.6608C119.8 64.1608 120.5 58.3608 118.5 53.2608L118.5 53.2608Z" id="Shape" fill="#444B54" stroke="none" />
    </g>
  </g>
</svg>