<svg width="190" height="180" viewBox="0 0 190 180" fill="none" xmlns="http://www.w3.org/2000/svg">
<path d="M173.469 77.0781L145.625 4.9375L139.578 10.9844C134.375 16.1875 127.484 19 120.312 19C113.141 19 106.25 16.1875 101.047 10.9844L95 4.9375L67.1562 77.0781C65.3281 81.7188 65.4687 86.3594 67.0156 90.4375L28.2031 81.8594C21.4531 80.3125 14.9844 85.5156 14.9844 92.4062C14.9844 98.4531 19.9063 103.234 25.8125 103.234H155.469C168.969 103.375 178.391 89.7344 173.469 77.0781Z" fill="white"/>
<path d="M106.25 42.9062C103.92 42.9062 102.031 44.7951 102.031 47.125C102.031 49.4549 103.92 51.3438 106.25 51.3438C108.58 51.3438 110.469 49.4549 110.469 47.125C110.469 44.7951 108.58 42.9062 106.25 42.9062ZM134.375 42.9062C132.045 42.9062 130.156 44.7951 130.156 47.125C130.156 49.4549 132.045 51.3438 134.375 51.3438C136.705 51.3438 138.594 49.4549 138.594 47.125C138.594 44.7951 136.705 42.9062 134.375 42.9062Z" fill="#182A42"/>
<path d="M177.406 75.6719L149.563 3.53125C149 2.26562 147.875 1.28124 146.469 0.859369C145.062 0.578119 143.656 0.999998 142.672 1.98437L136.625 8.03125C132.266 12.3906 126.5 14.7812 120.313 14.7812C114.125 14.7812 108.359 12.3906 104.141 8.03125L98.0937 1.98437C97.1094 0.999998 95.5625 0.578119 94.2969 0.859369C92.8906 1.14062 91.7656 2.125 91.2031 3.53125L63.3594 75.6719C60.5469 82.8438 61.5313 91 65.8906 97.4687C66.3125 98.0312 66.7344 98.7344 67.2969 99.2969H25.6719C22.0156 99.2969 19.0625 96.3437 19.0625 92.6875C19.0625 90.7187 19.9063 88.75 21.5938 87.4844C23.1406 86.2187 25.25 85.7969 27.2188 86.2188L47.6094 90.7187C49.8594 91.2812 52.1094 89.7344 52.6719 87.4844C53.2344 85.2344 51.6875 82.9844 49.4375 82.4219L29.1875 77.9219C24.6875 76.9375 20.0469 77.9219 16.3906 80.875C12.7344 83.6875 10.7656 88.0469 10.7656 92.6875C10.7656 100.984 17.5156 107.734 25.8125 107.734H85.1563C87.5469 107.734 89.375 105.906 89.375 103.516C89.375 101.125 87.5469 99.2969 85.1563 99.2969C80.0938 99.2969 75.5938 96.9062 72.7813 92.6875C69.9688 88.4687 69.2656 83.4062 71.0938 78.7656L96.5469 12.6719L98.0937 14.2187C104 19.9844 111.875 23.2187 120.313 23.2187C128.75 23.2187 136.625 19.9844 142.531 14.0781L144.078 12.5312L169.531 78.625C171.359 83.2656 170.797 88.4687 167.844 92.5469C164.891 96.625 160.391 99.1562 155.469 99.1562H145.062C143.234 93.1094 137.609 88.6094 130.859 88.6094C126.781 88.6094 122.984 90.2969 120.313 93.1094C120.313 93.1094 120.313 93.1094 120.172 92.9687C117.359 90.1562 113.703 88.6094 109.766 88.6094C105.828 88.6094 102.172 90.1562 99.3594 92.9687C96.5469 95.7812 95 99.4375 95 103.375C95 105.766 96.8281 107.594 99.2188 107.594C101.609 107.594 103.438 105.766 103.438 103.375C103.438 101.687 104.141 100.141 105.266 98.875C106.391 97.6094 108.078 97.0469 109.766 97.0469C111.453 97.0469 113 97.75 114.266 98.875C115.391 100 116.094 101.547 116.094 103.234V103.375C116.094 103.516 116.094 103.516 116.094 103.656C116.234 105.906 118.203 107.734 120.453 107.594C122.703 107.594 124.531 105.625 124.531 103.375V103.234C124.531 99.8594 127.344 97.0469 130.859 97.0469C134.375 97.0469 137.188 99.8594 137.188 103.375C137.188 105.766 139.016 107.594 141.406 107.594H155.469C163.203 107.594 170.516 103.797 174.875 97.3281C179.234 91 180.219 82.8438 177.406 75.6719Z" fill="#182A42"/>
<path d="M0 123C0 114.163 7.16344 107 16 107H174C182.837 107 190 114.163 190 123V145H0V123Z" fill="#5A5A6F"/>
<path d="M0 122H190V164C190 172.837 182.837 180 174 180H16C7.16344 180 0 172.837 0 164V122Z" fill="#393F54"/>
<line x1="2" y1="121" x2="188" y2="121" stroke="#6C668D" stroke-width="2"/>
<path d="M16 109H174C181.732 109 188 115.268 188 123V164C188 171.732 181.732 178 174 178H16C8.26801 178 2 171.732 2 164V123C2 115.268 8.26801 109 16 109Z" stroke="#4B466F" stroke-width="4"/>
<line x1="167" y1="164.5" x2="177" y2="164.5" stroke="white" stroke-width="3"/>
<path d="M28.7126 169.96H25.5446V165.12H20.7486C20.0446 165.12 19.3406 164.827 18.6366 164.24L17.5806 163.36C16.8766 162.773 16.5246 162.04 16.5246 161.16V159.4H20.2206V160.236C20.2206 160.676 20.2353 160.969 20.2646 161.116C20.3233 161.233 20.4846 161.395 20.7486 161.6C21.0126 161.805 21.2179 161.937 21.3646 161.996C21.5113 162.025 21.8486 162.04 22.3766 162.04H25.5446V151.92H21.1886C20.4846 151.92 19.7806 151.627 19.0766 151.04L17.8886 150.028C17.2726 149.529 16.9646 148.943 16.9646 148.268V140.04C16.9646 139.16 17.3166 138.427 18.0206 137.84L19.0766 136.96C19.7806 136.373 20.4846 136.08 21.1886 136.08H25.5446V131.68H28.7126V136.08H32.8926C33.5966 136.08 34.3006 136.373 35.0046 136.96L36.0606 137.84C36.7646 138.427 37.1166 139.16 37.1166 140.04V141.8H33.4206V140.964C33.4206 140.524 33.3913 140.245 33.3326 140.128C33.3033 139.981 33.1566 139.805 32.8926 139.6C32.6286 139.395 32.4233 139.277 32.2766 139.248C32.1299 139.189 31.7926 139.16 31.2646 139.16H28.7126V148.84H33.3326C34.0366 148.84 34.7406 149.133 35.4446 149.72L36.5006 150.6C37.2046 151.187 37.5566 151.92 37.5566 152.8V161.16C37.5566 162.04 37.2046 162.773 36.5006 163.36L35.4446 164.24C34.7406 164.827 34.0366 165.12 33.3326 165.12H28.7126V169.96ZM31.7046 151.92H28.7126V162.04H31.7046C32.2326 162.04 32.5699 162.025 32.7166 161.996C32.8633 161.937 33.0686 161.805 33.3326 161.6C33.5966 161.395 33.7433 161.233 33.7726 161.116C33.8313 160.969 33.8606 160.676 33.8606 160.236V153.724C33.8606 153.284 33.8313 153.005 33.7726 152.888C33.7433 152.741 33.5966 152.565 33.3326 152.36C33.0686 152.155 32.8633 152.037 32.7166 152.008C32.5699 151.949 32.2326 151.92 31.7046 151.92ZM20.6606 140.964V147.036C20.6606 147.476 20.6753 147.769 20.7046 147.916C20.7633 148.033 20.9246 148.195 21.1886 148.4C21.4526 148.605 21.6579 148.737 21.8046 148.796C21.9513 148.825 22.2886 148.84 22.8166 148.84H25.5446V139.16H22.8166C22.2886 139.16 21.9513 139.189 21.8046 139.248C21.6579 139.277 21.4526 139.395 21.1886 139.6C20.9246 139.805 20.7633 139.981 20.7046 140.128C20.6753 140.245 20.6606 140.524 20.6606 140.964ZM56.9735 140H58.7935C59.4175 140 59.8335 140.052 60.0415 140.156C60.2842 140.225 60.6135 140.433 61.0295 140.78C61.5842 141.231 61.8615 141.664 61.8615 142.08H62.0695C62.0695 141.664 62.4508 141.231 63.2135 140.78C63.8375 140.399 64.2535 140.173 64.4615 140.104C64.7042 140.035 65.1375 140 65.7615 140H70.5455C71.3775 140 72.2095 140.347 73.0415 141.04L74.2895 142.08L71.1695 144.68L70.5455 144.16C70.2335 143.917 69.9908 143.779 69.8175 143.744C69.6442 143.675 69.2455 143.64 68.6215 143.64H66.3855C65.7615 143.64 65.3282 143.675 65.0855 143.744C64.8775 143.813 64.4615 144.039 63.8375 144.42C63.2135 144.801 62.8495 145.079 62.7455 145.252C62.6415 145.425 62.5895 145.772 62.5895 146.292V166H58.2215V145.772C58.2215 145.252 58.1868 144.923 58.1175 144.784C58.0828 144.611 57.9095 144.403 57.5975 144.16C57.2855 143.917 57.0948 143.727 57.0255 143.588C56.9908 143.415 56.9735 143.068 56.9735 142.548V140ZM83.2839 166H78.9159V140H83.2839V166ZM83.7519 131.888V132.304C83.7519 132.963 83.7172 133.379 83.6479 133.552C83.6132 133.725 83.4572 133.933 83.1799 134.176C82.9026 134.453 82.2612 134.592 81.2559 134.592H80.9959C80.2332 134.592 79.7652 134.575 79.5919 134.54C79.4186 134.505 79.2106 134.384 78.9679 134.176C78.7252 133.933 78.5692 133.725 78.4999 133.552C78.4652 133.379 78.4479 132.963 78.4479 132.304V131.888C78.4479 131.229 78.4652 130.813 78.4999 130.64C78.5692 130.467 78.7426 130.259 79.0199 130.016C79.2279 129.808 79.4186 129.687 79.5919 129.652C79.7652 129.617 80.2332 129.6 80.9959 129.6H81.2039C82.2439 129.6 82.9199 129.739 83.2319 130.016C83.4746 130.259 83.6132 130.467 83.6479 130.64C83.7172 130.813 83.7519 131.229 83.7519 131.888ZM99.3474 149.36H99.5554C99.5554 148.944 99.7808 148.407 100.231 147.748L105.327 140H109.851L101.687 152.532L110.475 166H105.951L100.231 157.264C99.7808 156.571 99.5554 156.051 99.5554 155.704H99.3474C99.3474 156.051 99.1221 156.571 98.6714 157.264L92.9514 166H88.4274L97.2154 152.532L89.0514 140H93.5754L98.6714 147.748C99.1221 148.407 99.3474 148.944 99.3474 149.36ZM119.999 166H115.631V140H119.999V166ZM120.467 131.888V132.304C120.467 132.963 120.432 133.379 120.363 133.552C120.328 133.725 120.172 133.933 119.895 134.176C119.617 134.453 118.976 134.592 117.971 134.592H117.711C116.948 134.592 116.48 134.575 116.307 134.54C116.133 134.505 115.925 134.384 115.683 134.176C115.44 133.933 115.284 133.725 115.215 133.552C115.18 133.379 115.163 132.963 115.163 132.304V131.888C115.163 131.229 115.18 130.813 115.215 130.64C115.284 130.467 115.457 130.259 115.735 130.016C115.943 129.808 116.133 129.687 116.307 129.652C116.48 129.617 116.948 129.6 117.711 129.6H117.919C118.959 129.6 119.635 129.739 119.947 130.016C120.189 130.259 120.328 130.467 120.363 130.64C120.432 130.813 120.467 131.229 120.467 131.888ZM144.746 163.92H144.538C144.538 164.336 144.157 164.769 143.394 165.22C142.77 165.601 142.337 165.827 142.094 165.896C141.886 165.965 141.47 166 140.846 166H131.954C131.122 166 130.29 165.653 129.458 164.96L128.21 163.92C127.378 163.227 126.962 162.36 126.962 161.32V155.08C126.962 154.04 127.378 153.173 128.21 152.48L129.458 151.44C130.29 150.747 131.122 150.4 131.954 150.4H141.262C141.921 150.4 142.337 150.435 142.51 150.504C142.684 150.539 142.909 150.677 143.186 150.92C143.602 151.267 143.81 151.613 143.81 151.96H144.018V145.772C144.018 145.252 143.984 144.923 143.914 144.784C143.88 144.611 143.706 144.403 143.394 144.16C143.082 143.917 142.84 143.779 142.666 143.744C142.493 143.675 142.094 143.64 141.47 143.64H133.046C132.422 143.64 131.989 143.692 131.746 143.796C131.538 143.865 131.122 144.16 130.498 144.68L127.378 142.08L128.626 141.04C129.25 140.52 129.666 140.225 129.874 140.156C130.117 140.052 130.55 140 131.174 140H143.394C144.226 140 145.058 140.347 145.89 141.04L147.138 142.08C147.97 142.773 148.386 143.64 148.386 144.68V160.228C148.386 160.748 148.404 161.095 148.438 161.268C148.508 161.407 148.698 161.597 149.01 161.84C149.322 162.083 149.496 162.291 149.53 162.464C149.6 162.603 149.634 162.932 149.634 163.452V166H147.814C147.19 166 146.757 165.965 146.514 165.896C146.306 165.792 145.994 165.567 145.578 165.22C145.024 164.769 144.746 164.336 144.746 163.92ZM131.33 156.172V160.228C131.33 160.748 131.348 161.095 131.382 161.268C131.452 161.407 131.642 161.597 131.954 161.84C132.266 162.083 132.509 162.239 132.682 162.308C132.856 162.343 133.254 162.36 133.878 162.36H140.222C140.846 162.36 141.262 162.325 141.47 162.256C141.713 162.187 142.146 161.961 142.77 161.58C143.394 161.199 143.758 160.921 143.862 160.748C143.966 160.575 144.018 160.228 144.018 159.708V156.172C144.018 155.652 143.984 155.323 143.914 155.184C143.88 155.011 143.706 154.803 143.394 154.56C143.082 154.317 142.84 154.179 142.666 154.144C142.493 154.075 142.094 154.04 141.47 154.04H133.878C133.254 154.04 132.856 154.075 132.682 154.144C132.509 154.179 132.266 154.317 131.954 154.56C131.642 154.803 131.452 155.011 131.382 155.184C131.348 155.323 131.33 155.652 131.33 156.172Z" fill="white"/>
<circle cx="176.5" cy="115.5" r="2.5" fill="#DB8681"/>
<circle cx="162.5" cy="115.5" r="2.5" fill="#D9D9D9"/>
<circle cx="169.5" cy="115.5" r="2.5" fill="#D9D9D9"/>
</svg>
