<svg xmlns="http://www.w3.org/2000/svg" xmlns:xlink="http://www.w3.org/1999/xlink" version="1.1" x="0px" y="0px" viewBox="0 0 35.28 44.1" enable-background="new 0 0 35.28 35.28" xml:space="preserve"><g><path fill="#000000" d="M6.603,12.263c-0.332,0.059-0.398,0.668-0.102,0.815c0.17,0.085,0.301-0.109,0.193-0.249   c-0.098-0.127-0.043-0.282,0.025-0.415C6.761,12.329,6.692,12.248,6.603,12.263z"/><path fill="#000000" d="M6.607,13.553c-0.046,0.039-0.01,0.129,0.051,0.123c0.258-0.024,0.508-0.116,0.76-0.177   c0.289-0.067,0.584-0.117,0.858-0.235c0.142-0.061,0.036-0.266-0.1-0.236c-0.278,0.059-0.554,0.141-0.83,0.212   C7.085,13.307,6.815,13.376,6.607,13.553z"/><path fill="#000000" d="M8.323,14.13c0.075-0.022,0.107-0.122,0.047-0.179c-0.183-0.174-0.504-0.165-0.746-0.185   c-0.261-0.021-0.565-0.007-0.795,0.13c-0.037,0.022-0.033,0.087,0.013,0.097c0.223,0.048,0.458,0.038,0.684,0.06   C7.772,14.076,8.083,14.201,8.323,14.13z"/><path fill="#000000" d="M6.696,14.133c-0.026-0.01-0.053,0.02-0.045,0.045c0.102,0.338,0.495,0.535,0.799,0.663   c0.029,0.012,0.083,0.005,0.107-0.015c0.031-0.024,0.058-0.042,0.064-0.083c0.011-0.069-0.009-0.117-0.064-0.158   c-0.129-0.096-0.281-0.163-0.422-0.24C6.992,14.266,6.85,14.191,6.696,14.133z"/><path fill="#000000" d="M7.841,11.166c-0.066,0.075-0.155,0.107-0.182,0.21c-0.012,0.045,0.008,0.091,0.047,0.115   c0.285,0.176,0.521-0.335,0.574-0.535c0.081-0.305,0.027-0.695-0.271-0.857C7.902,10.04,7.8,10.176,7.881,10.265   c0.152,0.165,0.162,0.404,0.113,0.612C7.968,10.985,7.915,11.084,7.841,11.166z"/><path fill="#000000" d="M30.174,25.419c-0.537-1.002-1.626-1.617-2.369-2.444c-0.606-0.676-0.825-1.613-1.057-2.467   c-0.169-0.622-0.432-2.058-0.425-2.108c0.25-2.033,0.681-4.025,0.9-6.065c0.122-1.133,0.196-2.276,0.179-3.416   c-0.012-0.798-0.051-2.092-0.677-2.685c-1.135-1.074-2.298,0.573-2.303,1.68c-0.006,1.044,0.617,2.013,0.752,3.039   c0.183,1.38-0.343,2.738-0.853,3.991c-0.369,0.348-1.285,0.191-1.649,0.129c-0.707-0.121-1.424-0.127-2.139-0.157   c-1.627-0.067-3.317,0.036-4.929-0.212c-1.295-0.2-2.654-0.747-3.663-1.587c-0.494-0.412-0.825-0.994-1.301-1.429   c-0.414-0.376-0.977-0.586-1.436-0.904c-0.061-0.043-0.977-1.259-1.14-1.418C7.922,9.225,7.799,9.047,7.636,8.93   c0-0.003,0.002-0.006,0.002-0.009c0.003-0.102-0.116-0.169-0.202-0.116c-0.241,0.148-0.278,0.63-0.314,0.881   c-0.04,0.282-0.109,0.677,0.046,0.936c0.065,0.108,0.239,0.064,0.239-0.064C7.404,10.261,7.394,9.983,7.44,9.688   c0.022-0.14,0.074-0.285,0.121-0.43c0.127,0.205,0.836,0.89,0.98,1.094c0.129,0.183,0.168,0.405,0.322,0.566   c0.043,0.046,0.162,0.044,0.186,0.068c0.494,0.525,1.198,0.748,1.701,1.281c0.451,0.478,0.799,0.992,1.332,1.392   c1.126,0.846,2.624,1.289,4.004,1.451c1.959,0.23,3.977,0.073,5.947,0.226c0.64,0.048,2.139,0.424,2.524-0.294   c0.784-1.438,1.196-3.221,0.798-4.828c-0.21-0.853-0.609-1.63-0.604-2.526c0.005-0.672,0.622-1.568,1.382-1.451   c0.615,0.095,0.748,1.113,0.837,1.586c0.333,1.783-0.008,3.78-0.228,5.563c-0.209,1.678-0.654,3.325-0.759,5.015   c-0.007,0.098,0.359,3.954,2.036,5.305c0.696,0.68,1.48,1.218,1.949,2.098c0.539,1.011,0.671,3.743-1.077,3.166   c-0.048-0.438,0.215-0.782,0.259-1.201c0.037-0.352,0.02-0.672-0.041-1.018c-0.085-0.476-0.382-0.942-0.835-1.133   c-0.816-0.345-1.694-0.492-2.518-0.844c-0.791-0.337-2.473-1.412-2.579-1.483c-1.444-0.971-3.268-1.412-4.983-1.549   c-0.963-0.077-4.068,0.455-4.579,0.781c0.129-0.246,0.265-0.49,0.38-0.741c0.044-0.097-0.083-0.221-0.16-0.123   c-0.929,1.167-1.542,2.569-2.437,3.771c-0.494,0.664-1.028,1.298-1.52,1.963c-0.442,0.598-0.931,1.32-1.627,1.639   c-0.004,0.002-0.004,0.007-0.008,0.009c-0.013-0.004-0.564-0.037-0.829-0.056c-0.364-0.026-0.823-0.393-0.375-0.67   c0.16-0.099,0.36-0.154,0.538-0.217C8.1,27.914,8.397,27.632,8.59,27.09c0.398-1.117,0.742-2.244,1.216-3.335   c0.407-0.94,1.029-1.802,1.241-2.816c0.023-0.11-0.137-0.192-0.192-0.08c-0.044,0.091-0.09,0.182-0.136,0.272   c-0.255-0.989-0.275-2.062-0.706-2.997c-0.399-0.868-1.66-2.571-1.72-2.614c-0.894-0.657-2.966-0.081-3.352-1.292   c0.075-0.05,0.283-0.355,0.288-0.446c0.012-0.189-0.177-0.24-0.339-0.212c0.004-0.049,0.003-0.091,0.011-0.144   c0.192-1.292,2.015-1.498,2.294-2.691c0.006-0.025-0.022-0.052-0.046-0.035c-0.615,0.405-1.196,0.947-1.76,1.429   c-0.517,0.44-0.85,1.035-0.837,1.719c0.035,1.943,2.466,1.41,3.573,1.96c0.023,0.012,1.098,1.462,1.507,2.272   c0.505,1.002,0.496,2.176,0.785,3.243c0.022,0.083-0.854,2.09-1.24,3.125c-0.238,0.639-0.52,1.26-0.702,1.917   c-0.2,0.718-0.4,1.211-1.129,1.467c-0.495,0.174-1.008,0.422-0.874,1.022c0.13,0.589,1.333,0.505,1.738,0.478   c0.052-0.003,0.916-0.321,1.453-1.135c0.493-0.595,0.951-1.224,1.423-1.836c0.585-0.759,1.158-1.55,1.683-2.37   c0.072,0.432,0.485,0.77,0.769,1.081c0.57,0.629,1.214,1.201,1.817,1.8c0.389,0.386,0.799,0.871,0.278,1.35   c-0.141,0.129-0.14,0.247-0.147,0.42c-0.013,0.339,0.531,0.411,0.772,0.411c0.422,0.156,0.945,0.167,1.318-0.066   c0.556-0.348,0.288-0.792,0.066-1.33c-0.751-1.835-3.045-5.191-3.069-5.199c0.29-0.051,0.584-0.086,0.866-0.143   c0.923-0.187,1.812-0.32,2.756-0.273c0.37,0.019,0.743,0.071,1.115,0.134c-0.325,1.324,0.538,2.557,1.619,3.246   c2.019,1.288-2.777,2.766-1.298,3.441c0.381,0.174,1.086,0.251,1.481,0.146c0.665-0.175,1.029-0.755,1.479-1.231   c0.413-0.436,1.426-1.08,1.412-1.775c-0.006-0.318-0.098-0.575-0.215-0.872c-0.147-0.374-0.134-0.77-0.151-1.162   c1.097,0.716,2.252,1.342,3.532,1.67c0.332,0.084,0.657,0.153,0.975,0.288c0.529,0.226,0.648,0.854,0.685,1.361   c-0.471,1.942-0.303,1.931-0.186,1.979c0.67,0.281,1.651,0.123,1.928-0.656C30.918,27.641,30.647,26.302,30.174,25.419z    M4.975,13.851c-0.014-0.001-0.013,0,0.003,0.003c-0.018-0.005-0.014-0.002-0.015-0.005C4.967,13.849,4.971,13.851,4.975,13.851z    M4.877,13.852c0-0.007-0.002-0.012-0.002-0.019c0.005,0.001,0.01,0.002,0.015,0.003C4.886,13.841,4.881,13.848,4.877,13.852z    M14.773,23.479c0.353,0.636,0.785,1.227,1.158,1.852c0.397,0.665,0.776,1.341,1.162,2.013c0.199,0.347,0.357,0.693,0.465,1.077   c0.176,0.621-1.281,0.295-1.449,0.188c-0.015-0.01,0.135-0.568,0.157-0.823c0.038-0.432-0.409-0.871-0.675-1.151   c-0.456-0.478-0.945-0.929-1.421-1.386c-0.45-0.433-0.837-0.987-1.344-1.354c0.213-0.337,0.64-1.023,0.653-1.034   c0.31-0.229,0.558-0.307,0.931-0.374C14.394,22.494,14.6,23.166,14.773,23.479z M22.155,27.738   c-0.53,0.559-0.846,1.011-1.701,0.929c-0.543-0.053-0.978-0.164-0.285-0.613c0.237-0.155,0.457-0.342,0.672-0.524   c0.489-0.414,1.479-1.271,0.813-1.959c-0.435-0.451-1.002-0.721-1.431-1.187c-0.571-0.621-0.678-1.382-0.676-2.178   c1.315,0.251,2.609,0.765,3.688,1.5c0.017,0.011,0.077,1.135,0.309,1.725C23.913,26.364,22.701,27.161,22.155,27.738z"/></g><text x="0" y="50.28" fill="#000000" font-size="5px" font-weight="bold" font-family="'Helvetica Neue', Helvetica, Arial-Unicode, Arial, Sans-serif">Created by Julia Amadeo</text><text x="0" y="55.28" fill="#000000" font-size="5px" font-weight="bold" font-family="'Helvetica Neue', Helvetica, Arial-Unicode, Arial, Sans-serif">from the Noun Project</text></svg>